<?xml version="1.0" encoding="utf-8"?>
<!-- Generator: Adobe Illustrator 19.2.1, SVG Export Plug-In . SVG Version: 6.00 Build 0)  -->
<svg version="1.1" id="Layer_1" xmlns="http://www.w3.org/2000/svg" xmlns:xlink="http://www.w3.org/1999/xlink" x="0px" y="0px"
	 viewBox="0 0 756 644" style="enable-background:new 0 0 756 644;" xml:space="preserve">
<style type="text/css">
	.st0{fill:url(#SVGID_1_);}
	.st1{clip-path:url(#SVGID_3_);}
	.st2{fill:#33100E;}
	.st3{font-family:'Ethos-Regular';}
	.st4{font-size:140.3392px;}
	.st5{opacity:0.45;enable-background:new    ;}
	.st6{clip-path:url(#SVGID_5_);}
	.st7{clip-path:url(#SVGID_7_);}
	.st8{fill:#D12B91;}
	.st9{fill:#FFFFFF;}
	.st10{font-size:36px;}
</style>
<linearGradient id="SVGID_1_" gradientUnits="userSpaceOnUse" x1="367.2" y1="1065.1" x2="367.2" y2="1407.1" gradientTransform="matrix(1 0 0 1 0 -938)">
	<stop  offset="0" style="stop-color:#310638"/>
	<stop  offset="1" style="stop-color:#080318"/>
</linearGradient>
<path class="st0" d="M490.2,469.1h-246c-1.6,0-3-1.4-3-3v-336c0-1.6,1.4-3,3-3h246c1.6,0,3,1.4,3,3v336
	C493.2,467.8,491.9,469.1,490.2,469.1z"/>
<g>
	<defs>
		<path id="SVGID_2_" d="M483.2,469.1h-232c-5.5,0-10-4.5-10-10v-322c0-5.5,4.5-10,10-10h232c5.5,0,10,4.5,10,10v322
			C493.2,464.6,488.7,469.1,483.2,469.1z"/>
	</defs>
	<clipPath id="SVGID_3_">
		<use xlink:href="#SVGID_2_"  style="overflow:visible;"/>
	</clipPath>
	<g class="st1">
		<text transform="matrix(1 0 0 1 219.9769 445.6684)" class="st2 st3 st4">Aesthetics</text>
	</g>
</g>
<g class="st5">
	<defs>
		<path id="SVGID_4_" class="st5" d="M483.2,469.1h-232c-5.5,0-10-4.5-10-10v-322c0-5.5,4.5-10,10-10h232c5.5,0,10,4.5,10,10v322
			C493.2,464.6,488.7,469.1,483.2,469.1z"/>
	</defs>
	<clipPath id="SVGID_5_">
		<use xlink:href="#SVGID_4_"  style="overflow:visible;"/>
	</clipPath>
	<g class="st6">
		<g>
			<defs>
				<path id="SVGID_6_" d="M483.2,469.1h-232c-5.5,0-10-4.5-10-10v-322c0-5.5,4.5-10,10-10h232c5.5,0,10,4.5,10,10v322
					C493.2,464.6,488.7,469.1,483.2,469.1z"/>
			</defs>
			<clipPath id="SVGID_7_">
				<use xlink:href="#SVGID_6_"  style="overflow:visible;"/>
			</clipPath>
			<g class="st7">
				
					<image style="overflow:visible;enable-background:new    ;" width="312" height="312" xlink:href="CF353593ABC4C540.png"  transform="matrix(1 0 0 1 275 39)">
				</image>
				<g>
					<g>
						<g id="aesthetics_2_13_">
							<path class="st2" d="M413.6,129.1c-2.8,0.2-5-2.4-4.9-4.9s2-4.8,5-4.9c2.4-0.1,4.8,2.5,4.8,4.9
								C418.4,127,416.3,129.1,413.6,129.1z"/>
							<path class="st2" d="M413.5,253.3c2.7,0,4.9,2.1,4.9,4.8c0,2.4-2.4,4.9-4.8,5s-5.1-2.6-5-5.1S410.9,253.3,413.5,253.3z"/>
							<path class="st2" d="M440.3,129.1c-2.7,0-4.9-2.1-4.9-4.8c0-2.4,2.6-5,5-4.9c2.4,0,4.9,2.6,4.8,4.9
								C445.1,127.4,442.5,129.4,440.3,129.1z"/>
							<path class="st2" d="M467.1,316.4c-2.6,0-4.9-2.2-4.8-4.7c0.1-2.6,2-5,4.8-5s4.8,2.1,4.9,4.9
								C472.2,314.2,469.8,316.4,467.1,316.4z"/>
							<path class="st2" d="M413.6,316.4c-2.7,0-5.1-2.3-4.9-4.9c0.2-2.8,2.2-4.8,5-4.9c2.4-0.1,4.9,2.6,4.8,5.1
								C418.4,314.3,416.2,316.4,413.6,316.4z"/>
							<path class="st2" d="M467.1,129.1c-2.7,0-5-2.2-4.9-4.8c0.2-2.7,2.1-4.8,4.9-4.9c2.4-0.1,4.8,2.5,4.9,4.9
								C472.1,126.9,469.8,129.1,467.1,129.1z"/>
							<path class="st2" d="M413.8,66c2.5,0.1,4.7,2.4,4.6,5c-0.1,2.4-2.7,5-4.9,4.8c-3-0.3-4.8-2.5-4.9-5
								C408.6,68.7,410.4,65.8,413.8,66z"/>
							<path class="st2" d="M445.2,70.9c0,2.4-2.7,5-5,4.9c-2.4-0.1-4.9-2.7-4.8-5.1c0.1-2.7,2.3-4.7,5.1-4.7
								C442.7,66,445,67.9,445.2,70.9z"/>
							<path class="st2" d="M493.9,66c2.6,0,5.1,2.4,5,4.8c-0.1,2.5-2.7,5.2-5,4.9c-2.9-0.3-4.9-2.7-4.9-5
								C489.1,68.2,491.2,66,493.9,66z"/>
							<path class="st2" d="M493.9,316.4c-2.7,0-4.8-2.2-4.9-4.9c0-2.4,2.3-4.8,5-4.9c2.4-0.1,5,2.5,4.8,4.9
								C498.7,313.8,497.2,316.4,493.9,316.4z"/>
							<path class="st2" d="M440.2,316.4c-2.6,0-4.8-2.2-4.7-4.8c0.1-2.6,2.1-4.8,4.9-4.9c2.3-0.1,4.9,2.6,4.8,4.9
								C445.1,314.7,442.5,316.7,440.2,316.4z"/>
							<path class="st2" d="M418.4,151c0,2.7-2.1,4.9-4.8,4.9c-3.1,0-4.8-2.3-5-4.8c-0.2-2.4,2.5-5,4.9-5
								C415.9,146.2,418.4,148.6,418.4,151z"/>
							<path class="st2" d="M413.5,172.9c2.6,0,5,2.3,4.9,4.9c-0.1,2.8-2.2,4.9-4.9,4.9c-2.7,0-4.8-2.3-4.9-5
								C408.6,175.3,411.1,172.9,413.5,172.9z"/>
							<path class="st2" d="M440.3,102.3c-2.6,0-4.8-2.1-4.9-4.7c0-2.2,2.2-4.9,5-4.9c2.4,0,4.8,2.4,4.9,4.8
								C445.3,100.2,443,102.3,440.3,102.3z"/>
							<path class="st2" d="M467.1,253.3c2.8-0.2,4.9,2.5,4.9,4.9c0,2.4-2.6,4.9-4.9,4.8c-2.4-0.1-4.8-2.5-4.9-4.9
								C462.2,255.5,464.4,253.3,467.1,253.3z"/>
							<path class="st2" d="M440.4,253.3c2.2-0.2,4.7,1.7,4.9,4.9c0.1,2.3-2.5,4.9-4.8,4.9c-2.4,0-5-2.6-5-5
								C435.5,255.4,437.7,253.3,440.4,253.3z"/>
							<path class="st2" d="M467.1,66c2.3-0.1,4.8,1.8,4.9,4.9c0.1,2.4-2.7,5.1-5,4.9c-2.9-0.3-4.8-2.6-4.8-5.1
								C462.2,68.1,464.5,66,467.1,66z"/>
							<path class="st2" d="M418.4,231.4c0,2.4-2.5,4.8-4.9,4.8s-5-2.5-4.9-5c0.2-2.5,1.9-4.8,5-4.8
								C416.3,226.5,418.5,228.8,418.4,231.4z"/>
							<path class="st2" d="M306.6,253.3c2.6,0,4.9,2.1,4.9,4.7c0,2.4-2.5,5-4.9,5.1s-5-2.5-4.9-5
								C301.8,255.4,303.9,253.3,306.6,253.3z"/>
							<path class="st2" d="M493.9,253.3c3.1-0.1,4.8,2.5,4.9,4.8c0.1,2.4-2.4,4.8-4.8,4.9s-5-2.5-5-4.9
								C489,255.5,491.2,253.3,493.9,253.3z"/>
							<path class="st2" d="M489,177.8c0-2.7,2.1-4.9,4.8-4.9c2.4,0,5,2.5,5,4.9c0,2.3-2.5,4.8-4.8,4.9
								C491.6,182.8,489.1,180.3,489,177.8z"/>
							<path class="st2" d="M301.7,231.3c0-2.7,2.3-4.8,5-4.8c2.5,0,4.9,2.3,4.8,4.8c0,2.5-2.5,5.1-4.9,5
								C303.9,236.2,301.6,233.7,301.7,231.3z"/>
							<path class="st2" d="M301.7,177.9c0-2.7,2.2-5,4.8-4.9c2.8,0,4.9,2.1,4.9,4.9c0,2.8-2.1,4.7-4.8,4.9
								C304.3,182.9,301.8,180.3,301.7,177.9z"/>
							<path class="st2" d="M413.6,289.6c-2.7,0-5-2.2-5-4.8c0-2.4,2.4-5,5-4.8c2.6,0.3,4.8,2.2,4.8,4.8S416.2,289.6,413.6,289.6z"
								/>
							<path class="st2" d="M494,155.9c-2.7,0-4.9-2.1-5-4.8c-0.1-2.4,2.2-4.8,4.9-4.9c2.5-0.1,5,2.6,4.9,5
								C498.8,153.7,496.5,155.9,494,155.9z"/>
							<path class="st2" d="M440.4,155.9c-2.7,0-5-2.2-5-4.8c0-2.4,2.5-4.9,4.8-4.9c2.4,0,5,2.6,5,5
								C445.2,153.7,443,155.9,440.4,155.9z"/>
							<path class="st2" d="M440.3,226.5c2.7,0,5.1,2.2,5,4.8c-0.1,2.4-1.8,4.7-4.8,4.9c-2.3,0.2-5-2.3-4.9-4.8
								C435.5,228.8,437.1,226.7,440.3,226.5z"/>
							<path class="st2" d="M467.1,280.1c2.5-0.5,5,2.4,4.9,4.6c-0.1,2.8-2.3,4.9-4.9,4.9c-2.6-0.1-4.9-2.1-4.9-4.7
								C462.2,282.7,464.5,279.6,467.1,280.1z"/>
							<path class="st2" d="M306.6,155.9c-2.7,0-4.9-2.2-4.9-4.8c0-2.4,2.4-4.9,4.8-4.9c3,0.1,4.9,2.3,5,5
								C311.6,153.7,309.1,155.9,306.6,155.9z"/>
							<path class="st2" d="M301.7,70.8c0-2.7,2.2-4.9,4.9-4.8c2.6,0,4.9,2.3,4.9,4.7c0.1,2.4-2.5,5-4.9,5.1
								C304.3,75.9,301.7,73.3,301.7,70.8z"/>
							<path class="st2" d="M413.6,92.8c2.6,0,4.9,2.1,4.9,4.7c0,2.7-2.2,4.8-4.9,4.8c-2.6,0.1-4.9-2.3-4.9-4.9
								C408.6,94.9,410.9,92.8,413.6,92.8z"/>
							<path class="st2" d="M467.1,199.7c2.6,0,4.9,2.3,4.9,4.9c0,2.4-2.7,5-5,5c-2.5-0.1-4.9-2.6-4.8-5.1
								C462.3,201.9,464.5,199.7,467.1,199.7z"/>
							<path class="st2" d="M467.1,172.9c2.5,0,5,2.5,5,4.9c-0.1,2.4-2.5,4.8-4.9,4.9c-2.4,0.1-4.9-2.5-4.9-5
								C462.2,175.3,464.6,172.9,467.1,172.9z"/>
							<path class="st2" d="M467.1,102.3c-2.6,0-4.8-2.2-4.8-4.7c0-2.2,2.1-5,5.1-4.9c2.1,0.1,4.6,2.2,4.7,4.8
								C472.1,100.1,469.8,102.3,467.1,102.3z"/>
							<path class="st2" d="M440.3,289.6c-2.7,0-4.9-2.2-4.9-4.9c0.1-2.1,2.1-4.9,5.1-4.6c2.5,0.2,4.8,2.3,4.7,4.7
								C445.1,287.6,443,289.8,440.3,289.6z"/>
							<path class="st2" d="M467.2,155.9c-2.7,0-5-2.2-5-4.8c0-2.4,2.4-5,4.8-4.9c2.9,0.1,4.9,2.5,5,4.9
								C472.1,153.6,469.7,155.9,467.2,155.9z"/>
							<path class="st2" d="M493.9,129.1c-2.7,0-4.8-2.2-4.9-4.9c-0.1-2.1,2.1-4.8,4.8-4.9c2.5-0.1,5.1,2.5,5,4.9
								C498.6,126.7,497,129.2,493.9,129.1z"/>
							<path class="st2" d="M489,231.4c0-2.7,2.1-4.9,4.9-4.9c2.6,0,5.2,2.4,4.9,4.8c-0.3,2.7-2.1,4.8-5,4.8
								C491.4,236.2,488.9,233.7,489,231.4z"/>
							<path class="st2" d="M413.5,199.7c2.7,0,4.9,2.2,4.9,4.9c0,2.4-2.6,5.1-5,5s-4.8-2.6-4.9-4.9
								C408.6,202.1,411,199.7,413.5,199.7z"/>
							<path class="st2" d="M472.1,231.3c-0.2,2.5-2,4.8-4.8,4.9c-3.1,0-4.9-2.5-5-5s2.3-4.7,4.9-4.7
								C469.7,226.5,472,228.8,472.1,231.3z"/>
							<path class="st2" d="M306.6,129.1c-2.7,0-4.9-2.2-4.9-4.9c0-2.4,2.5-4.9,4.9-4.9c2.5,0,5.2,2.6,4.9,5
								C311.2,126.8,309.7,129.2,306.6,129.1z"/>
							<path class="st2" d="M338,231.3c0.1,3.2-2.4,5-4.8,4.9c-2.3,0-4.7-1.5-4.7-4.8c0-2.7,2.1-4.8,4.7-4.8
								C335.9,226.5,338,228.6,338,231.3z"/>
							<path class="st2" d="M301.7,204.7c0-2.7,2.2-4.9,4.8-5c2.5,0,5,2.3,5,4.8c0,2.4-2.6,5-4.9,5
								C304.2,209.5,301.8,207,301.7,204.7z"/>
							<path class="st2" d="M333.3,92.8c2.9,0,4.7,1.8,4.7,4.8c0,2.7-2,4.7-4.8,4.6c-2.7,0-4.7-2-4.7-4.7
								C328.5,94.6,330.3,92.8,333.3,92.8z"/>
							<path class="st2" d="M440.4,199.7c3,0.2,4.7,2.3,4.8,4.9c0.1,2.4-2.5,4.8-4.8,4.9c-2.4,0.1-5-2.6-5-5
								C435.4,201.9,437.8,199.7,440.4,199.7z"/>
							<path class="st2" d="M440.3,172.9c2.5,0,5,2.5,4.9,5c-0.1,2.4-2.6,4.9-4.9,4.9s-4.9-2.5-4.9-4.9
								C435.4,175.2,437.7,172.9,440.3,172.9z"/>
							<path class="st2" d="M306.6,316.2c-2.9,0-4.9-1.8-4.9-4.6c0-2.5,2.6-5.1,5-5s4.9,2.7,4.9,5.1
								C311.4,314.4,309.5,316.2,306.6,316.2z"/>
							<path class="st2" d="M493.8,102.3c-2.6,0-4.7-2.2-4.7-4.8c0-2.6,2.3-4.6,5-4.7c2.5-0.1,4.7,2,4.8,4.8
								C498.9,100.2,496.5,102.3,493.8,102.3z"/>
							<path class="st2" d="M494,199.7c2.5,0,5,2.6,4.8,5c-0.1,2.4-2.7,5-4.9,4.8c-2.7-0.2-5-2.5-4.9-5
								C489.1,201.8,491.3,199.7,494,199.7z"/>
							<path class="st2" d="M306.5,92.8c2.4-0.3,4.8,1.7,5,4.7c0.1,2.6-2.3,4.8-5,4.8c-2.6,0-4.8-2.2-4.8-4.8
								C301.7,95,304,92.8,306.5,92.8z"/>
							<path class="st2" d="M355.3,231.2c0-2.5,2.2-4.6,4.7-4.7c2.6-0.1,5,2.7,4.8,5c-0.2,2.5-2.2,4.8-4.7,4.7
								C357.8,236.2,355.2,234.7,355.3,231.2z"/>
							<path class="st2" d="M355.3,70.8c0-2.6,2.2-4.8,4.7-4.8c2.6,0,4.8,2.2,4.8,5c0,2.6-2.2,4.8-4.8,4.9
								C357.5,75.8,355.3,73.5,355.3,70.8z"/>
							<path class="st2" d="M542.6,231.2c0-2.7,2.1-4.6,4.8-4.7c2.1-0.1,4.8,2.5,4.7,5c-0.2,3.1-2.5,4.8-4.8,4.8
								C544.4,236.1,542.5,234.1,542.6,231.2z"/>
							<path class="st2" d="M382.1,97.5c-0.4-2.5,2.2-4.9,4.7-4.7c3,0.2,4.8,1.8,4.8,4.8c0,2.7-2.1,4.7-4.8,4.7
								C384,102.3,382.1,100.4,382.1,97.5z"/>
							<path class="st2" d="M542.6,177.7c-0.5-2.4,2.5-4.8,4.8-4.8c2.6,0,4.6,2.3,4.7,5c0.1,2.3-2.1,4.8-4.8,4.7
								C544.2,182.6,542.3,179.9,542.6,177.7z"/>
							<path class="st2" d="M382.1,177.7c-0.5-2.4,2.6-4.8,4.8-4.8c2.6,0.1,4.6,2.2,4.7,4.9c0.1,2.6-2.2,4.8-4.8,4.9
								C384.2,182.8,382.1,180.5,382.1,177.7z"/>
							<path class="st2" d="M306.5,280.1c2.5-0.4,4.8,1.8,5,4.7c0.1,2.6-2.2,4.8-5,4.8c-2.6,0-4.8-2.2-4.8-4.8
								C301.7,282.3,303.9,280.1,306.5,280.1z"/>
							<path class="st2" d="M338,311.6c0,2.7-2.1,4.8-4.8,4.8c-2.7,0-4.8-2.2-4.7-5c0-2.6,2.2-4.9,4.8-4.9
								C335.9,306.6,338,308.9,338,311.6z"/>
							<path class="st2" d="M382.1,124.3c-0.1-3.1,2.2-4.6,4.7-4.9c2.6-0.3,4.8,2.1,4.8,4.9c0,2.7-2.2,4.9-4.9,4.9
								C384.1,129.1,382.1,127,382.1,124.3z"/>
							<path class="st2" d="M391.6,151.1c0,2.7-2.2,4.8-4.9,4.8c-2.6,0-4.5-2.2-4.6-4.9c-0.1-2.3,1.8-4.9,4.7-4.8
								C389.2,146.3,391.7,147.7,391.6,151.1z"/>
							<path class="st2" d="M338,151.3c0,2.5-2.2,4.6-4.7,4.6c-2.8,0-4.8-2.2-4.8-5.1c0-2.5,2.3-4.9,4.7-4.7
								C335.6,146.4,338.2,147.8,338,151.3z"/>
							<path class="st2" d="M493.9,280.1c2.3-0.3,4.9,1.8,4.9,4.8c0.1,2.6-2.2,4.7-4.9,4.7c-2.7,0-4.9-2.1-4.9-4.8
								C489,282.3,491.3,280.1,493.9,280.1z"/>
							<path class="st2" d="M525.3,258.1c0.1,3.3-2.3,4.7-4.8,4.9c-2.5,0.2-4.7-2.1-4.7-4.8c0-2.8,2.1-4.9,4.8-4.9
								C523.3,253.3,525.3,255.4,525.3,258.1z"/>
							<path class="st2" d="M391.6,311.5c0,2.7-2.1,4.9-4.8,4.9c-2.6,0-4.7-2.2-4.7-4.8c0-2.7,2.1-4.9,4.6-5
								C389.4,306.5,391.6,308.8,391.6,311.5z"/>
							<path class="st2" d="M382.1,258.1c0-2.7,2.1-4.8,4.7-4.8c2.7,0,4.8,2.2,4.8,4.9c0,2.6-2.1,4.8-4.8,4.8
								C384.3,263.1,382.1,260.9,382.1,258.1z"/>
							<path class="st2" d="M542.6,258.1c0-2.7,2.1-4.7,4.7-4.8c2.7,0,4.8,2.2,4.8,4.9c-0.1,3.2-2.2,4.7-4.8,4.7
								C544.8,263,542.5,261.3,542.6,258.1z"/>
							<path class="st2" d="M364.8,311.5c0,2.8-2.1,5-4.7,5c-2.5,0-4.6-2.1-4.8-4.6c-0.2-3.3,2.5-5,4.8-5.2
								C362.6,306.4,364.8,308.8,364.8,311.5z"/>
							<path class="st2" d="M338,258.2c0.1,3.4-2.6,4.9-4.8,4.8c-2.7-0.1-4.7-1.7-4.7-4.8c0-2.6,2.1-4.8,4.7-4.8
								C336,253.3,338,255.4,338,258.2z"/>
							<path class="st2" d="M525.3,311.7c0,2.7-2.1,4.7-4.8,4.7c-2.6,0-4.7-2.2-4.7-5c0-2.6,2.3-4.9,4.8-4.8
								C523.3,306.7,525.3,308.9,525.3,311.7z"/>
							<path class="st2" d="M338,70.9c0,2.7-2.3,5-4.8,5c-2.6-0.1-4.7-2.3-4.7-4.9c0-2.7,2.1-4.9,4.8-4.9
								C335.9,66,338,68.2,338,70.9z"/>
							<path class="st2" d="M382.1,70.8c0-2.6,2.2-4.8,4.7-4.8c2.6,0,4.8,2.2,4.7,5c0,2.6-2.2,4.8-4.8,4.8
								C384.3,75.8,382.1,73.5,382.1,70.8z"/>
							<path class="st2" d="M515.8,70.9c0-2.7,2.2-4.9,4.9-4.9c2.6,0,4.7,2.2,4.7,4.9c0,2.7-2.3,5-4.9,4.9
								C517.9,75.7,515.8,73.5,515.8,70.9z"/>
							<path class="st2" d="M525.3,97.6c0,2.7-2.1,4.8-4.8,4.7c-2.8,0-4.7-2-4.7-4.9c0-2.8,1.9-4.6,4.8-4.6
								C523.5,92.8,525.3,94.7,525.3,97.6z"/>
							<path class="st2" d="M542.6,97.6c-0.4-2.4,2-5,4.8-4.8c2.9,0.2,4.7,1.9,4.7,4.8c0,2.7-2.1,4.6-4.8,4.8
								C545.2,102.5,542.1,99.8,542.6,97.6z"/>
							<path class="st2" d="M355.3,124.3c-0.1-3.4,2.5-4.9,4.8-4.9c2.9,0.1,4.8,2.2,4.7,4.8c-0.1,2.8-2.1,4.9-4.8,4.9
								C357.4,129.1,355.3,127,355.3,124.3z"/>
							<path class="st2" d="M552.1,124.4c0,2.6-2.2,4.7-4.8,4.7c-2.7,0-4.7-2.2-4.7-5c0-2.6,2.3-5,4.8-4.7
								C550.4,119.7,552.2,121.6,552.1,124.4z"/>
							<path class="st2" d="M552.1,151c0.4,2.3-2.3,5-4.6,5c-2.6,0-4.8-2.1-4.9-4.7c-0.1-2.8,1.9-5,4.7-5
								C549.8,146.2,552.2,147.9,552.1,151z"/>
							<path class="st2" d="M328.5,177.8c0-2.7,2.2-5,4.8-4.9c2.2,0.1,4.8,2.1,4.7,4.9c0,3.2-2.8,5-4.9,4.9
								C330.4,182.6,328.3,180.2,328.5,177.8z"/>
							<path class="st2" d="M525.3,231.3c0.2,3.2-2.4,4.9-4.6,4.9c-2.3,0-4.9-1.5-4.9-4.9c0.1-2.7,2.1-4.8,4.7-4.8
								C523.2,226.5,525.3,228.7,525.3,231.3z"/>
							<path class="st2" d="M542.6,204.4c0-2.5,2.2-4.7,4.8-4.7s4.7,2.2,4.7,4.9s-2.2,5-4.8,4.9
								C544.7,209.4,542.6,207.2,542.6,204.4z"/>
							<path class="st2" d="M355.3,204.4c0-2.5,2.1-4.7,4.7-4.7c2.7,0,4.8,2.2,4.8,5c0,2.6-2.2,4.9-4.8,4.9
								C357.4,209.5,355.3,207.2,355.3,204.4z"/>
							<path class="st2" d="M338,204.6c0,2.6-2.2,4.8-4.7,4.9c-2.6,0-4.8-2.3-4.8-5c0-2.6,2.2-4.8,4.7-4.8
								C336,199.7,338,201.8,338,204.6z"/>
							<path class="st2" d="M355.3,177.8c0-2.6,2.1-4.8,4.7-4.9c2.6,0,4.8,2.2,4.8,4.9c0,2.6-2.1,4.9-4.7,4.9
								C357,182.6,355.1,179.9,355.3,177.8z"/>
							<path class="st2" d="M542.6,311.6c0-2.7,2.1-5,4.6-5c2.7-0.1,4.9,2.2,4.9,5c0,2.6-2.2,4.8-4.8,4.8
								C544.8,316.4,542.6,314.2,542.6,311.6z"/>
							<path class="st2" d="M515.8,150.9c-0.1-2.9,2.2-4.6,4.7-4.7c2.4,0,4.9,1.7,4.8,4.9c-0.1,2.6-2.2,4.8-4.8,4.8
								S515.8,153.7,515.8,150.9z"/>
							<path class="st2" d="M382.1,231.3c0-2.5,2.1-4.8,4.6-4.8c2.7,0,4.9,2.1,4.9,4.9c0,2.8-2.2,5.1-4.9,4.9
								C383.9,236,381.9,233.8,382.1,231.3z"/>
							<path class="st2" d="M333.3,280.1c2.4-0.4,4.9,2.1,4.8,4.6c-0.2,2.8-2.1,4.9-4.9,4.9c-2.7,0-4.6-2.1-4.7-4.8
								C328.4,282.4,330.7,279.8,333.3,280.1z"/>
							<path class="st2" d="M355.3,258.1c0-2.7,2-4.8,4.7-4.8s4.8,2.1,4.8,4.9c0.1,2.9-2.1,4.7-4.7,4.8
								C357.9,263,355.1,261.4,355.3,258.1z"/>
							<path class="st2" d="M542.6,284.9c-0.4-2.6,2.4-5,4.8-4.8c2.8,0.2,4.7,1.9,4.7,4.6c0,2.8-2,4.9-4.7,4.9
								C544.7,289.6,542.6,287.5,542.6,284.9z"/>
							<path class="st2" d="M515.8,124.3c-0.1-3,2-4.8,4.7-4.8c2.4-0.1,4.9,1.5,4.8,4.8c0,2.7-2,4.8-4.7,4.9
								C518,129.1,515.8,127,515.8,124.3z"/>
							<path class="st2" d="M382.1,204.5c0-2.6,2.2-4.8,4.8-4.8c2.6,0,4.7,2.2,4.7,4.9s-2.3,5.2-4.9,4.9
								C383.9,209.2,381.9,207.2,382.1,204.5z"/>
							<path class="st2" d="M552.1,70.9c0,3.2-2.5,4.6-4.8,4.8c-2.6,0.2-4.8-2.2-4.7-5.1c0-2.6,2.2-4.7,4.9-4.6
								C550.1,66,552.1,68.3,552.1,70.9z"/>
							<path class="st2" d="M355.3,97.6c0-3,1.8-4.8,4.7-4.8c2.9,0,4.8,1.8,4.8,4.6c0,2.7-2,4.8-4.7,4.9
								C357.4,102.3,355.3,100.3,355.3,97.6z"/>
							<path class="st2" d="M525.3,177.8c0.2,2.5-2,4.8-4.7,4.9c-2.9,0.1-5-2.4-4.9-4.9c0.1-2.7,2.1-4.9,4.7-4.9
								C522.7,172.9,525.6,174.9,525.3,177.8z"/>
							<path class="st2" d="M525.3,204.5c0,2.7-2.2,5-4.8,5c-2.5-0.1-4.7-2.2-4.7-4.8c0-2.8,2-5,4.6-5.1
								C523.2,199.7,525.3,201.8,525.3,204.5z"/>
							<path class="st2" d="M328.5,124.3c0-3.3,2.3-4.9,4.8-4.8c2.8,0.1,4.7,1.9,4.7,4.6c0,2.9-2,5-4.8,5
								C330.6,129.1,328.5,126.9,328.5,124.3z"/>
							<path class="st2" d="M355.3,284.9c0-3,1.8-4.8,4.7-4.8c2.9,0,4.7,1.8,4.7,4.6c0,2.7-2,4.8-4.7,4.9
								C357.4,289.6,355.3,287.6,355.3,284.9z"/>
							<path class="st2" d="M382.1,284.9c-0.4-2.6,2.3-4.9,4.7-4.9c2.4,0,4.9,2.3,4.8,4.8c-0.2,2.7-2.1,4.8-4.8,4.8
								C384.1,289.6,382.1,287.7,382.1,284.9z"/>
							<path class="st2" d="M525.3,284.8c0,2.7-2.1,4.8-4.7,4.8c-2.7,0-4.7-2.2-4.8-4.9c-0.1-2.2,2.1-4.8,4.9-4.6
								C523.5,280.3,525.3,282,525.3,284.8z"/>
							<path class="st2" d="M355.3,151.2c-0.2-3,1.9-4.9,4.7-5c2.3-0.1,4.8,1.6,4.8,4.7c0,2.8-2.1,5-4.8,5
								C357.5,155.9,355.3,153.7,355.3,151.2z"/>
						</g>
					</g>
				</g>
			</g>
		</g>
	</g>
</g>
<g>
	
		<image style="overflow:visible;opacity:0.96;enable-background:new    ;" width="144" height="144" xlink:href="CF353593ABC4C543.png"  transform="matrix(1.3056 0 0 1.3056 276.1666 215.9917)">
	</image>
	<g>
		<g>
			<g id="aesthetics_2_10_">
				<path class="st8" d="M355.8,263.9c-1.8,0.1-3.3-1.6-3.1-3.1c0-1.7,1.3-3.1,3.3-3.1c1.6,0,3.1,1.7,3.1,3.1
					C358.9,262.5,357.5,263.9,355.8,263.9z"/>
				<path class="st8" d="M355.7,344.8c1.8,0,3.1,1.4,3.3,3.1c0,1.6-1.6,3.1-3.1,3.3c-1.6,0-3.3-1.7-3.3-3.3
					C352.5,346.3,354,344.8,355.7,344.8z"/>
				<path class="st8" d="M373.2,263.9c-1.8,0-3.1-1.4-3.3-3.1c0-1.6,1.7-3.3,3.3-3.3c1.6,0,3.3,1.7,3.1,3.1
					C376.3,262.9,374.6,264,373.2,263.9z"/>
				<path class="st8" d="M390.7,386c-1.7,0-3.3-1.4-3.1-3.1c0-1.7,1.3-3.3,3.1-3.3c1.8,0,3.1,1.3,3.3,3.1
					C393.9,384.5,392.4,386,390.7,386z"/>
				<path class="st8" d="M355.8,386c-1.8,0-3.4-1.4-3.3-3.1c0.1-1.8,1.4-3.1,3.3-3.1c1.6-0.1,3.1,1.7,3.1,3.3
					C358.9,384.5,357.5,386,355.8,386z"/>
				<path class="st8" d="M390.7,263.9c-1.8,0-3.3-1.4-3.1-3.1c0.1-1.7,1.3-3.1,3.3-3.1c1.6,0,3.1,1.7,3.1,3.1
					C393.9,262.5,392.4,263.9,390.7,263.9z"/>
				<path class="st8" d="M355.9,222.8c1.7,0,3.1,1.6,3,3.3c-0.1,1.6-1.8,3.3-3.3,3.1c-2-0.1-3.1-1.6-3.1-3.3
					C352.5,224.6,353.7,222.6,355.9,222.8z"/>
				<path class="st8" d="M376.4,226c0,1.6-1.8,3.3-3.3,3.3c-1.6-0.1-3.1-1.8-3.1-3.4c0-1.7,1.4-3,3.3-3
					C374.7,222.8,376.3,224.1,376.4,226z"/>
				<path class="st8" d="M408,222.8c1.7,0,3.3,1.6,3.3,3.1s-1.7,3.4-3.3,3.3c-1.8-0.1-3.3-1.7-3.1-3.3
					C405,224.2,406.3,222.8,408,222.8z"/>
				<path class="st8" d="M408.2,386c-1.7,0-3.1-1.4-3.1-3.1c0-1.6,1.4-3.1,3.3-3.1c1.6,0,3.3,1.7,3.1,3.1
					C411.2,384.3,410.2,386,408.2,386z"/>
				<path class="st8" d="M373.2,386c-1.7,0-3.1-1.4-3.1-3.1c0.1-1.7,1.3-3.1,3.3-3.3c1.4-0.1,3.3,1.7,3.1,3.1
					C376.3,384.8,374.6,386.1,373.2,386z"/>
				<path class="st8" d="M358.9,278.1c0,1.7-1.4,3.3-3.1,3.3c-2.1,0-3.1-1.4-3.3-3.1c-0.1-1.6,1.7-3.3,3.1-3.3
					C357.2,275,358.9,276.7,358.9,278.1z"/>
				<path class="st8" d="M355.8,292.5c1.7,0,3.3,1.4,3.1,3.1c0,1.8-1.4,3.1-3.3,3.1c-1.8,0-3.1-1.6-3.1-3.3
					C352.5,293.9,354.1,292.5,355.8,292.5z"/>
				<path class="st8" d="M373.2,246.4c-1.7,0-3.1-1.4-3.1-3.1c0-1.4,1.4-3.3,3.3-3.1c1.6,0,3.1,1.6,3.1,3.1
					C376.4,245.1,375,246.4,373.2,246.4z"/>
				<path class="st8" d="M390.7,344.8c1.8-0.1,3.1,1.7,3.1,3.3c0,1.6-1.7,3.1-3.3,3.1s-3.1-1.6-3.1-3.3
					C387.4,346.3,388.8,344.8,390.7,344.8z"/>
				<path class="st8" d="M373.2,344.8c1.4-0.1,3.1,1.2,3.1,3.1c0,1.6-1.7,3.1-3.1,3.1c-1.6,0-3.3-1.7-3.3-3.3
					C370,346.3,371.5,344.8,373.2,344.8z"/>
				<path class="st8" d="M390.7,222.8c1.4-0.1,3.1,1.2,3.3,3.1c0,1.6-1.7,3.4-3.3,3.1c-2-0.1-3.1-1.7-3.1-3.3
					C387.4,224.2,389,222.8,390.7,222.8z"/>
				<path class="st8" d="M358.9,330.6c0,1.6-1.7,3.1-3.1,3.1c-1.6,0-3.3-1.7-3.1-3.3c0.1-1.6,1.2-3.1,3.3-3.1
					C357.5,327.4,358.9,328.9,358.9,330.6z"/>
				<path class="st8" d="M286.1,344.8c1.7,0,3.1,1.4,3.1,3.1c0,1.6-1.6,3.3-3.1,3.3c-1.6,0-3.3-1.7-3.3-3.3
					C283,346.2,284.4,344.8,286.1,344.8z"/>
				<path class="st8" d="M408.2,344.8c2-0.1,3.1,1.7,3.3,3.1c0.1,1.6-1.6,3.1-3.1,3.3c-1.6,0-3.3-1.6-3.3-3.3
					C404.9,346.3,406.3,344.8,408.2,344.8z"/>
				<path class="st8" d="M404.9,295.6c0-1.7,1.4-3.1,3.1-3.3c1.6,0,3.3,1.6,3.3,3.1c0,1.6-1.6,3.1-3.1,3.3
					C406.6,298.9,404.9,297.3,404.9,295.6z"/>
				<path class="st8" d="M283,330.5c0-1.7,1.4-3.1,3.3-3.1c1.7,0,3.1,1.6,3.1,3.1c0,1.6-1.6,3.3-3.3,3.3
					C284.3,333.6,282.8,332.1,283,330.5z"/>
				<path class="st8" d="M283,295.6c0-1.7,1.4-3.3,3.1-3.3c1.8,0,3.3,1.3,3.3,3.1c0,1.8-1.4,3-3.1,3.3
					C284.5,299,283,297.3,283,295.6z"/>
				<path class="st8" d="M355.8,368.5c-1.8,0-3.3-1.4-3.3-3.1c0-1.6,1.6-3.3,3.3-3.1c1.7,0.1,3.1,1.4,3.1,3.1
					C358.9,367,357.5,368.5,355.8,368.5z"/>
				<path class="st8" d="M408.2,281.4c-1.8,0-3.1-1.4-3.3-3.1c0-1.6,1.4-3.1,3.3-3.3c1.6,0,3.3,1.7,3.3,3.3
					C411.3,280,409.9,281.4,408.2,281.4z"/>
				<path class="st8" d="M373.3,281.4c-1.8,0-3.3-1.4-3.3-3.1c0-1.6,1.7-3.3,3.1-3.3c1.6,0,3.3,1.7,3.3,3.3
					C376.3,280,375,281.4,373.3,281.4z"/>
				<path class="st8" d="M373.2,327.4c1.7,0,3.3,1.4,3.3,3.1c-0.1,1.6-1.2,3-3.1,3.1c-1.6,0.1-3.3-1.6-3.3-3.1
					C370,328.9,371.1,327.5,373.2,327.4z"/>
				<path class="st8" d="M390.7,362.3c1.7-0.4,3.3,1.6,3.1,3c0,1.8-1.4,3.3-3.1,3.1c-1.7,0-3.1-1.4-3.1-3.1
					C387.4,364,389,362,390.7,362.3z"/>
				<path class="st8" d="M286.1,281.4c-1.8,0-3.1-1.4-3.1-3.1c0-1.6,1.6-3.3,3.1-3.1c2,0,3.1,1.4,3.3,3.3
					C289.4,280,287.7,281.4,286.1,281.4z"/>
				<path class="st8" d="M283,225.9c0-1.7,1.4-3.1,3.1-3.1s3.1,1.4,3.3,3.1c0,1.6-1.6,3.3-3.1,3.3
					C284.5,229.2,282.8,227.5,283,225.9z"/>
				<path class="st8" d="M355.8,240.3c1.7,0,3.1,1.4,3.1,3c0,1.7-1.4,3.1-3.3,3.1c-1.7,0-3.1-1.6-3.1-3.1
					C352.5,241.6,354,240.3,355.8,240.3z"/>
				<path class="st8" d="M390.7,309.9c1.7,0,3.3,1.4,3.3,3.1c0,1.6-1.7,3.3-3.3,3.3c-1.6,0-3.1-1.7-3.1-3.3
					C387.5,311.3,389,309.9,390.7,309.9z"/>
				<path class="st8" d="M390.7,292.5c1.7,0,3.3,1.6,3.3,3.3c0,1.6-1.7,3.1-3.1,3.1c-1.6,0-3.3-1.6-3.3-3.3
					C387.4,293.9,389,292.5,390.7,292.5z"/>
				<path class="st8" d="M390.7,246.4c-1.7,0-3.1-1.4-3.1-3.1c0-1.4,1.3-3.3,3.4-3.1c1.4,0,3,1.4,3,3.1
					C393.9,245,392.4,246.4,390.7,246.4z"/>
				<path class="st8" d="M373.2,368.5c-1.7,0-3.3-1.4-3.1-3.1c0-1.3,1.4-3.1,3.4-3c1.6,0.1,3.1,1.4,3,3.1
					C376.3,367.2,374.9,368.6,373.2,368.5z"/>
				<path class="st8" d="M390.7,281.4c-1.7,0-3.3-1.4-3.3-3.1c0-1.6,1.6-3.3,3.1-3.3c2,0,3.1,1.6,3.3,3.3
					C393.9,279.8,392.4,281.4,390.7,281.4z"/>
				<path class="st8" d="M408,263.9c-1.7,0-3.1-1.4-3.1-3.1c0-1.3,1.4-3.1,3.1-3.1c1.6,0,3.4,1.6,3.3,3.3
					C411.2,262.3,410.1,264,408,263.9z"/>
				<path class="st8" d="M404.9,330.6c0-1.7,1.4-3.1,3.1-3.1s3.4,1.6,3.3,3.1c-0.1,1.8-1.3,3.1-3.3,3.1
					C406.5,333.8,404.9,332.1,404.9,330.6z"/>
				<path class="st8" d="M355.8,309.9c1.7,0,3.1,1.4,3.1,3.1c0,1.6-1.7,3.3-3.3,3.3s-3.1-1.7-3.1-3.3S354.1,309.9,355.8,309.9z"/>
				<path class="st8" d="M393.9,330.5c-0.1,1.6-1.3,3.1-3.1,3.1c-2,0-3.3-1.6-3.3-3.3s1.4-3.1,3.1-3.1
					C392.4,327.4,393.8,328.8,393.9,330.5z"/>
				<path class="st8" d="M286.1,263.9c-1.8,0-3.1-1.4-3.1-3.1c0-1.6,1.7-3.1,3.1-3.1c1.6,0,3.4,1.7,3.1,3.3
					C289.1,262.5,288,263.9,286.1,263.9z"/>
				<path class="st8" d="M306.6,330.5c0.1,2.1-1.6,3.3-3.1,3.3c-1.4,0-3.1-1-3-3.1c0-1.7,1.3-3.1,3.1-3.1
					C305.1,327.4,306.6,328.8,306.6,330.5z"/>
				<path class="st8" d="M283,313.1c0-1.7,1.4-3.3,3.1-3.3s3.3,1.6,3.3,3.1s-1.7,3.3-3.3,3.3C284.5,316.3,283,314.7,283,313.1z"/>
				<path class="st8" d="M303.5,240.3c2,0,3,1.2,3,3.1c0,1.7-1.3,3-3.1,3c-1.8,0-3-1.3-3-3.1C300.3,241.4,301.5,240.3,303.5,240.3z"
					/>
				<path class="st8" d="M373.3,309.9c2,0.1,3.1,1.6,3.1,3.3c0,1.6-1.6,3.1-3.1,3.1c-1.6,0-3.3-1.7-3.3-3.3S371.5,309.9,373.3,309.9
					z"/>
				<path class="st8" d="M373.2,292.5c1.7,0,3.3,1.7,3.1,3.3c0,1.6-1.7,3.1-3.3,3.1s-3.1-1.7-3.1-3.1
					C370,293.9,371.5,292.5,373.2,292.5z"/>
				<path class="st8" d="M286.1,385.8c-2,0-3.1-1.2-3.1-3c0-1.6,1.7-3.3,3.3-3.3s3.3,1.8,3.1,3.4
					C289.2,384.7,287.9,385.8,286.1,385.8z"/>
				<path class="st8" d="M408,246.4c-1.7,0-3.1-1.4-3.1-3.1s1.4-3,3.3-3c1.6,0,3,1.3,3.1,3.1C411.4,245.1,409.9,246.4,408,246.4z"/>
				<path class="st8" d="M408.2,309.9c1.6,0,3.3,1.7,3.1,3.3c-0.1,1.6-1.7,3.3-3.3,3.1c-1.8-0.1-3.3-1.6-3.1-3.3
					C405,311.3,406.5,309.9,408.2,309.9z"/>
				<path class="st8" d="M286.1,240.3c1.6-0.1,3.1,1.2,3.3,3.1c0.1,1.7-1.4,3.1-3.3,3.1c-1.7,0-3.1-1.4-3.1-3.1
					C282.8,241.7,284.4,240.3,286.1,240.3z"/>
				<path class="st8" d="M317.8,330.4c0-1.6,1.4-3,3.1-3s3.3,1.8,3.1,3.3c-0.1,1.7-1.4,3.1-3.1,3.1
					C319.4,333.6,317.7,332.7,317.8,330.4z"/>
				<path class="st8" d="M317.8,225.9c0-1.7,1.4-3.1,3.1-3.1s3.1,1.4,3.1,3.3c0,1.7-1.4,3.1-3.1,3.1S317.8,227.7,317.8,225.9z"/>
				<path class="st8" d="M439.9,330.5c0-1.7,1.4-3,3.1-3.1c1.4,0,3.1,1.7,3.1,3.3c-0.1,2.1-1.7,3.1-3.1,3.1
					C441.1,333.6,439.8,332.3,439.9,330.5z"/>
				<path class="st8" d="M335.3,243.3c-0.3-1.6,1.4-3.1,3-3.1c2,0.1,3.1,1.2,3.1,3.1c0,1.7-1.4,3.1-3.1,3.1
					C336.5,246.4,335.3,245.2,335.3,243.3z"/>
				<path class="st8" d="M439.9,295.5c-0.3-1.6,1.6-3.1,3.1-3.1c1.7,0,3,1.4,3.1,3.3c0,1.6-1.4,3.1-3.1,3.1
					C440.9,298.8,439.6,297.1,439.9,295.5z"/>
				<path class="st8" d="M335.3,295.5c-0.4-1.6,1.7-3.1,3.1-3.1c1.7,0,3,1.4,3.1,3.1c0.1,1.7-1.4,3.1-3.1,3.3
					C336.6,298.9,335.3,297.3,335.3,295.5z"/>
				<path class="st8" d="M286,362.3c1.6-0.3,3.1,1.2,3.3,3.1c0.1,1.7-1.4,3.1-3.3,3.1c-1.7,0-3.1-1.4-3.1-3.1S284.3,362.3,286,362.3
					z"/>
				<path class="st8" d="M306.6,382.8c0,1.7-1.4,3.1-3.1,3.1s-3.1-1.4-3.1-3.3c0-1.7,1.4-3.1,3.1-3.1
					C305.1,379.6,306.6,381,306.6,382.8z"/>
				<path class="st8" d="M335.3,260.8c-0.1-2.1,1.4-3,3-3.1c1.7-0.3,3.1,1.4,3.1,3.1c0,1.8-1.4,3.1-3.1,3.1S335.3,262.6,335.3,260.8
					z"/>
				<path class="st8" d="M341.4,278.3c0,1.8-1.4,3.1-3.3,3.1c-1.7,0-2.9-1.4-3-3.3c0-1.4,1.2-3.1,3.1-3.1
					C339.9,275.1,341.6,276,341.4,278.3z"/>
				<path class="st8" d="M306.6,278.4c0,1.7-1.4,3-3.1,3c-1.8,0-3.1-1.4-3.1-3.3c0-1.7,1.4-3.1,3.1-3
					C305,275.1,306.7,276,306.6,278.4z"/>
				<path class="st8" d="M408,362.3c1.6-0.3,3.1,1.2,3.3,3.1c0,1.7-1.4,3.1-3.1,3.1c-1.8,0-3.1-1.4-3.3-3.1
					C404.9,363.8,406.3,362.3,408,362.3z"/>
				<path class="st8" d="M428.5,348c0.1,2.2-1.4,3-3.1,3.3c-1.7,0.1-3.1-1.4-3.1-3.1c0-1.8,1.3-3.3,3.1-3.3
					C427.2,344.8,428.5,346.2,428.5,348z"/>
				<path class="st8" d="M341.4,382.7c0,1.8-1.4,3.3-3.1,3.1c-1.7,0-3-1.4-3-3.1s1.3-3.1,3-3.3C340,379.4,341.4,381,341.4,382.7z"/>
				<path class="st8" d="M335.3,348c0-1.7,1.3-3.1,3.1-3.1c1.7,0,3.1,1.4,3.1,3.3c0,1.7-1.4,3.1-3.1,3.1
					C336.6,351.2,335.3,349.8,335.3,348z"/>
				<path class="st8" d="M439.9,348c0-1.7,1.3-3.1,3.1-3.1c1.7,0,3.1,1.4,3.1,3.3c0,2.1-1.4,3.1-3.1,3.1
					C441.3,351.1,439.8,350.1,439.9,348z"/>
				<path class="st8" d="M323.9,382.7c0,1.8-1.3,3.3-3.1,3.3c-1.7,0-3-1.4-3.1-3c-0.1-2.2,1.6-3.3,3.1-3.4
					C322.5,379.4,323.9,381,323.9,382.7z"/>
				<path class="st8" d="M306.6,348c0,2.2-1.7,3.1-3.1,3.1c-1.7-0.1-3-1.2-3-3.1c0-1.7,1.4-3.1,3.1-3.1
					C305.1,344.8,306.6,346.2,306.6,348z"/>
				<path class="st8" d="M428.5,382.8c0,1.7-1.4,3.1-3.1,3.1s-3-1.4-3-3.3c0-1.7,1.6-3.3,3.1-3.1C427.3,379.7,428.7,381,428.5,382.8
					z"/>
				<path class="st8" d="M306.6,225.9c0,1.8-1.4,3.3-3.1,3.3s-3-1.4-3-3.3c0-1.8,1.4-3.1,3.1-3.1
					C305.1,222.8,306.6,224.2,306.6,225.9z"/>
				<path class="st8" d="M335.3,225.9c0-1.7,1.4-3.1,3.1-3.1s3.1,1.4,3.1,3.3c0,1.7-1.4,3.1-3.1,3.1S335.3,227.7,335.3,225.9z"/>
				<path class="st8" d="M422.4,225.9c0-1.8,1.4-3.1,3.1-3.1s3,1.4,3,3.1c0,1.7-1.6,3.3-3.1,3.3
					C423.7,229.2,422.4,227.7,422.4,225.9z"/>
				<path class="st8" d="M428.5,243.4c0,1.7-1.3,3.1-3.1,3.1c-1.8,0-3.1-1.3-3.1-3.3c0-1.8,1.2-3,3.1-3
					C427.3,240.3,428.5,241.4,428.5,243.4z"/>
				<path class="st8" d="M439.9,243.4c-0.3-1.6,1.3-3.3,3.1-3.1c1.8,0.1,3,1.2,3,3.1c0,1.8-1.3,3-3.1,3.1
					C441.6,246.5,439.5,244.8,439.9,243.4z"/>
				<path class="st8" d="M317.8,260.8c-0.1-2.2,1.7-3.3,3.1-3.1c1.8,0,3.1,1.4,3.1,3.1c0,1.8-1.4,3.1-3.1,3.1
					C319.1,263.9,317.8,262.6,317.8,260.8z"/>
				<path class="st8" d="M446,260.9c0,1.7-1.4,3.1-3.1,3c-1.7,0-3-1.4-3-3.3c0-1.7,1.4-3.3,3.1-3.1C445,257.8,446.1,259.1,446,260.9
					z"/>
				<path class="st8" d="M446,278.1c0.3,1.6-1.6,3.3-3,3.3c-1.7,0-3.1-1.4-3.1-3.1c-0.1-1.8,1.2-3.3,3-3.3
					C444.6,275,446,276.2,446,278.1z"/>
				<path class="st8" d="M300.3,295.6c0-1.8,1.4-3.3,3.1-3.3c1.4,0,3.1,1.4,3.1,3.1c0,2.1-1.8,3.3-3.1,3.1
					C301.6,298.8,300.2,297.2,300.3,295.6z"/>
				<path class="st8" d="M428.5,330.5c0.1,2.1-1.6,3.1-3,3.1c-1.4,0-3.3-0.9-3.1-3.1c0-1.7,1.4-3.1,3.1-3.1S428.5,328.8,428.5,330.5
					z"/>
				<path class="st8" d="M439.9,313c0-1.7,1.4-3.1,3.1-3c1.7,0,3,1.4,3,3.1c0,1.8-1.4,3.3-3.1,3.3
					C441.2,316.3,439.9,314.8,439.9,313z"/>
				<path class="st8" d="M317.8,313c0-1.7,1.4-3,3-3.1c1.7,0,3.1,1.4,3.1,3.3c0,1.7-1.4,3.1-3.1,3.1S317.8,314.8,317.8,313z"/>
				<path class="st8" d="M306.6,313.1c0,1.7-1.4,3.1-3.1,3.1s-3.1-1.4-3.1-3.3c0-1.7,1.4-3.1,3.1-3.1
					C305.3,309.9,306.6,311.3,306.6,313.1z"/>
				<path class="st8" d="M317.8,295.6c0-1.7,1.4-3.1,3-3.1c1.7,0,3.1,1.4,3.1,3.3c0,1.7-1.4,3.3-3,3.1
					C318.9,298.8,317.7,297.1,317.8,295.6z"/>
				<path class="st8" d="M439.9,382.8c0-1.7,1.3-3.3,3-3.3c1.8,0,3.3,1.4,3.3,3.3c0,1.7-1.4,3.1-3.1,3.1
					C441.3,386,439.9,384.5,439.9,382.8z"/>
				<path class="st8" d="M422.4,278.1c0-1.8,1.4-3,3-3c1.6,0,3.3,1.2,3.1,3.1c0,1.7-1.4,3.1-3.1,3.1
					C423.8,281.4,422.4,280,422.4,278.1z"/>
				<path class="st8" d="M335.3,330.5c0-1.7,1.4-3.1,3-3.1c1.8,0,3.1,1.4,3.1,3.1c0,1.8-1.4,3.3-3.1,3.1
					C336.4,333.6,335.2,332.2,335.3,330.5z"/>
				<path class="st8" d="M303.5,362.3c1.6-0.3,3.3,1.4,3.1,3c-0.1,1.8-1.3,3.1-3.1,3.1c-1.7,0-3-1.3-3-3.1
					C300.3,363.8,301.8,362.1,303.5,362.3z"/>
				<path class="st8" d="M317.8,348c0-1.7,1.3-3.1,3-3.1s3.1,1.4,3.1,3.1c0,1.8-1.3,3.1-3.1,3.1C319.5,351.1,317.7,350.1,317.8,348z
					"/>
				<path class="st8" d="M439.9,365.3c-0.3-1.7,1.6-3.3,3.1-3.1c1.8,0.1,3,1.2,3,3c0,1.8-1.3,3.3-3.1,3.3
					C441.2,368.5,439.9,367.2,439.9,365.3z"/>
				<path class="st8" d="M422.4,260.8c0-2,1.3-3.1,3-3.1c1.6,0,3.1,1,3.1,3.1c0,1.8-1.3,3.1-3,3.1S422.4,262.6,422.4,260.8z"/>
				<path class="st8" d="M335.3,313c0-1.7,1.4-3.1,3.1-3.1s3.1,1.4,3.1,3.1c0,1.8-1.4,3.4-3.1,3.1
					C336.5,316.1,335.2,314.8,335.3,313z"/>
				<path class="st8" d="M446,226c0,2.1-1.6,3-3.1,3.1c-1.7,0.1-3.1-1.4-3.1-3.4c0-1.7,1.4-3,3.1-3C444.7,222.8,446,224.2,446,226z"
					/>
				<path class="st8" d="M317.8,243.4c0-2,1.2-3.1,3.1-3.1c1.8,0,3.1,1.2,3.1,3c0,1.8-1.3,3.1-3,3.1
					C319.2,246.4,317.8,245.1,317.8,243.4z"/>
				<path class="st8" d="M428.5,295.6c0.1,1.7-1.3,3.1-3,3.1c-1.8,0-3.3-1.6-3.1-3.1c0.1-1.7,1.4-3.1,3-3.1
					C426.8,292.4,428.8,293.8,428.5,295.6z"/>
				<path class="st8" d="M428.5,313.1c0,1.8-1.4,3.3-3.1,3.3s-3-1.4-3-3.1c0-1.8,1.3-3.3,3-3.3C427.2,309.9,428.5,311.3,428.5,313.1
					z"/>
				<path class="st8" d="M300.3,260.8c0-2.1,1.6-3.1,3.1-3.1c1.8,0,3,1.3,3,3c0,2-1.3,3.3-3.1,3.3
					C301.8,263.9,300.3,262.5,300.3,260.8z"/>
				<path class="st8" d="M317.8,365.5c0-2,1.2-3.1,3.1-3.1c1.8,0,3.1,1.2,3.1,3s-1.3,3.1-3,3.1C319.2,368.5,317.8,367.2,317.8,365.5
					z"/>
				<path class="st8" d="M335.3,365.5c-0.3-1.7,1.4-3.1,3.1-3.1c1.6,0,3.3,1.6,3.1,3.1c-0.1,1.7-1.4,3.1-3.1,3.1
					C336.6,368.5,335.3,367.2,335.3,365.5z"/>
				<path class="st8" d="M428.5,365.3c0,1.7-1.3,3.1-3.1,3.1c-1.7,0-3-1.4-3.1-3.3c-0.1-1.4,1.3-3.1,3.1-3
					C427.3,362.5,428.5,363.5,428.5,365.3z"/>
				<path class="st8" d="M317.8,278.3c-0.1-2,1.3-3.3,3-3.3c1.4,0,3.1,1,3.1,3.1c0,1.8-1.4,3.3-3.1,3.3
					C319.2,281.4,317.8,280,317.8,278.3z"/>
			</g>
		</g>
	</g>
</g>
<text transform="matrix(1 0 0 1 261.2002 177.2142)" class="st9 st3 st10">Aesthetics</text>
</svg>
