<?xml version="1.0" encoding="utf-8"?>
<!-- Generator: Adobe Illustrator 19.2.1, SVG Export Plug-In . SVG Version: 6.00 Build 0)  -->
<svg version="1.1" id="Layer_1" xmlns="http://www.w3.org/2000/svg" xmlns:xlink="http://www.w3.org/1999/xlink" x="0px" y="0px"
	 viewBox="0 0 64 64" style="enable-background:new 0 0 64 64;" xml:space="preserve">
<path d="M32,0C14.3,0,0,14.3,0,32c0,17.7,14.3,32,32,32s32-14.3,32-32C64,14.3,49.7,0,32,0z M46.5,45H17.5c-2,0-3.5-1.3-3.5-3
	c0-1.7,1.6-3,3.5-3h28.9c2,0,3.5,1.3,3.5,3C50,43.7,48.4,45,46.5,45z M46.5,35H17.5c-2,0-3.5-1.3-3.5-3c0-1.7,1.6-3,3.5-3h28.9
	c2,0,3.5,1.3,3.5,3C50,33.7,48.4,35,46.5,35z M46.5,25H17.5c-2,0-3.5-1.3-3.5-3c0-1.7,1.6-3,3.5-3h28.9c2,0,3.5,1.3,3.5,3
	C50,23.7,48.4,25,46.5,25z"/>
</svg>
