<?xml version="1.0" encoding="utf-8"?>
<!-- Generator: Adobe Illustrator 19.2.1, SVG Export Plug-In . SVG Version: 6.00 Build 0)  -->
<svg version="1.1" id="Layer_1" xmlns="http://www.w3.org/2000/svg" xmlns:xlink="http://www.w3.org/1999/xlink" x="0px" y="0px"
	 viewBox="0 0 64 48" style="enable-background:new 0 0 64 48;" xml:space="preserve">
<style type="text/css">
	.st0{fill:none;}
	.st1{opacity:0.1;}
	.st2{opacity:0.22;fill:#29ABE2;}
	.st3{opacity:0.22;fill:none;stroke:#C1272D;stroke-linecap:round;stroke-miterlimit:10;}
	.st4{opacity:0.22;fill:none;stroke:#39B54A;stroke-linecap:round;stroke-miterlimit:10;}
	.st5{opacity:0.46;}
	.st6{fill:none;stroke:#C1272D;stroke-width:0.5;stroke-linecap:round;stroke-miterlimit:10;}
</style>
<g>
	<circle class="st0" cx="20.6" cy="22.6" r="7.5"/>
	<path class="st1" d="M20.6,31c-4.7,0-8.5-3.8-8.5-8.5c0-4.7,3.8-8.5,8.5-8.5c4.7,0,8.5,3.8,8.5,8.5C29.1,27.2,25.3,31,20.6,31z
		 M20.6,16.1c-3.6,0-6.5,2.9-6.5,6.5S17,29,20.6,29s6.5-2.9,6.5-6.5S24.2,16.1,20.6,16.1z"/>
</g>
<circle class="st2" cx="7.6" cy="7.4" r="0.9"/>
<polygon class="st3" points="14.7,39.6 12.1,44.1 17.3,44.1 "/>
<polygon class="st4" points="48.5,33.8 47.1,36.2 45.6,33.9 44.1,36.5 47,36.5 47.1,36.5 50,36.5 "/>
<g class="st5">
	<line class="st6" x1="50.5" y1="12.1" x2="52.2" y2="13.9"/>
	<line class="st6" x1="52.2" y1="12.1" x2="50.5" y2="13.9"/>
</g>
</svg>
