<?xml version="1.0" encoding="utf-8"?>
<!-- Generator: Adobe Illustrator 19.2.1, SVG Export Plug-In . SVG Version: 6.00 Build 0)  -->
<svg version="1.1" id="Layer_1" xmlns="http://www.w3.org/2000/svg" xmlns:xlink="http://www.w3.org/1999/xlink" x="0px" y="0px"
	 viewBox="0 0 64 64" style="enable-background:new 0 0 64 64;" xml:space="preserve">
<path d="M31.8,64H32c17.6,0,31.9-14.3,32-31.8C64.1,14.6,49.8,0.1,32,0C14.4,0,0.1,14.3,0,31.8c-0.1,8.5,3.2,16.6,9.2,22.7
	C15.2,60.6,23.3,63.9,31.8,64z M44.7,27.9h0.1c2.3,0,4.1,1.8,4.1,4.1s-1.8,4.1-4.1,4.1h-0.1c-2.3,0-4.1-1.8-4.1-4.1
	S42.4,27.9,44.7,27.9z M31.9,27.9h0.1c2.3,0,4.1,1.8,4.1,4.1s-1.8,4.1-4.1,4.1h-0.1c-2.3,0-4.1-1.8-4.1-4.1
	C27.8,29.7,29.7,27.9,31.9,27.9z M19.1,27.9h0.1c2.3,0,4.1,1.8,4.1,4.1s-1.8,4.1-4.1,4.1h-0.1c-2.3,0-4.1-1.8-4.1-4.1
	C15,29.7,16.9,27.9,19.1,27.9z"/>
<path d="M32.1,32h-0.1H32.1z"/>
<path d="M32.1,32h-0.1H32.1z"/>
</svg>
