<?xml version="1.0" encoding="UTF-8" standalone="no"?>
<svg width="80px" height="40px" viewBox="0 0 80 40" version="1.1" xmlns="http://www.w3.org/2000/svg" xmlns:xlink="http://www.w3.org/1999/xlink">
    <!-- Generator: Sketch 41.2 (35397) - http://www.bohemiancoding.com/sketch -->
    <title>Shape</title>
    <desc>Created with Sketch.</desc>
    <defs></defs>
    <g id="Page-1" stroke="none" stroke-width="1" fill="none" fill-rule="evenodd">
        <g id="Artboard" fill="#000000">
            <path d="M80.0000303,19.9947172 C79.9720303,19.2797172 79.6777303,18.4533172 79.1875303,17.9321172 L63.1875203,0.931357192 C62.1033203,-0.0429428077 60.0243203,-0.445142808 58.8125203,0.681357192 C57.6189203,1.79085719 57.6544203,3.94265719 58.8435203,5.05655719 L70.0935203,16.9946572 L3.0000003,16.9946572 C1.3432003,16.9946572 0,18.3378172 0,19.9947172 C0,21.6516172 1.3432003,22.9948172 3.0000003,22.9948172 L70.0935203,22.9948172 L58.8435203,34.9329172 C57.8198203,35.9584172 57.6306203,38.1859172 58.8125203,39.3081172 C59.9941203,40.4302172 62.1478203,40.0717172 63.1875203,39.0580172 L79.1875303,22.0573172 C79.7350303,21.4755172 80.0018303,20.7929172 80.0000303,19.9947172 L80.0000303,19.9947172 Z" id="Shape"></path>
        </g>
    </g>
</svg>